<mxfile host="Electron" modified="2023-10-13T21:59:02.844Z" agent="Mozilla/5.0 (Windows NT 10.0; Win64; x64) AppleWebKit/537.36 (KHTML, like Gecko) draw.io/21.7.5 Chrome/114.0.5735.289 Electron/25.8.1 Safari/537.36" etag="zRNVJf2sZVFYNpKX-WfR" version="21.7.5" type="device">
  <diagram name="Page-1" id="ByE_iyZ5ZZ_60SZ4c1Ou">
    <mxGraphModel dx="2910" dy="2282" grid="1" gridSize="10" guides="1" tooltips="1" connect="1" arrows="1" fold="1" page="1" pageScale="1" pageWidth="850" pageHeight="1100" math="0" shadow="0">
      <root>
        <mxCell id="0" />
        <mxCell id="1" parent="0" />
        <mxCell id="8R8J1MiFsdW_CflYRS5i-21" style="edgeStyle=orthogonalEdgeStyle;rounded=0;orthogonalLoop=1;jettySize=auto;html=1;entryX=0.5;entryY=1;entryDx=0;entryDy=0;endArrow=none;endFill=0;" parent="1" source="KiiTx_aMD7oUM9jOCkIs-1" target="8R8J1MiFsdW_CflYRS5i-2" edge="1">
          <mxGeometry relative="1" as="geometry">
            <Array as="points">
              <mxPoint x="220" y="380" />
              <mxPoint x="730" y="380" />
            </Array>
          </mxGeometry>
        </mxCell>
        <mxCell id="EVNndC3BIwtmNu2A5LSY-65" style="edgeStyle=orthogonalEdgeStyle;shape=connector;rounded=0;orthogonalLoop=1;jettySize=auto;html=1;exitX=0;exitY=0.5;exitDx=0;exitDy=0;labelBackgroundColor=default;strokeColor=default;fontFamily=Helvetica;fontSize=11;fontColor=default;endArrow=none;endFill=0;entryX=0.996;entryY=0.155;entryDx=0;entryDy=0;entryPerimeter=0;" edge="1" parent="1" source="KiiTx_aMD7oUM9jOCkIs-1" target="EVNndC3BIwtmNu2A5LSY-52">
          <mxGeometry relative="1" as="geometry" />
        </mxCell>
        <mxCell id="KiiTx_aMD7oUM9jOCkIs-1" value="" style="rounded=0;whiteSpace=wrap;html=1;movable=1;resizable=1;rotatable=1;deletable=1;editable=1;locked=0;connectable=1;" parent="1" vertex="1">
          <mxGeometry x="160" y="120" width="120" height="190" as="geometry" />
        </mxCell>
        <mxCell id="EVNndC3BIwtmNu2A5LSY-38" style="edgeStyle=orthogonalEdgeStyle;shape=connector;rounded=0;orthogonalLoop=1;jettySize=auto;html=1;entryX=0;entryY=0.5;entryDx=0;entryDy=0;labelBackgroundColor=default;strokeColor=default;fontFamily=Helvetica;fontSize=11;fontColor=default;endArrow=none;endFill=0;" edge="1" parent="1" source="KiiTx_aMD7oUM9jOCkIs-2" target="EVNndC3BIwtmNu2A5LSY-29">
          <mxGeometry relative="1" as="geometry">
            <Array as="points">
              <mxPoint x="260" y="-5" />
              <mxPoint x="415" y="-5" />
            </Array>
          </mxGeometry>
        </mxCell>
        <mxCell id="EVNndC3BIwtmNu2A5LSY-85" style="edgeStyle=orthogonalEdgeStyle;shape=connector;rounded=0;orthogonalLoop=1;jettySize=auto;html=1;exitX=0.25;exitY=0;exitDx=0;exitDy=0;entryX=1;entryY=0.5;entryDx=0;entryDy=0;labelBackgroundColor=default;strokeColor=default;fontFamily=Helvetica;fontSize=11;fontColor=default;endArrow=none;endFill=0;" edge="1" parent="1" source="KiiTx_aMD7oUM9jOCkIs-2" target="EVNndC3BIwtmNu2A5LSY-69">
          <mxGeometry relative="1" as="geometry" />
        </mxCell>
        <mxCell id="KiiTx_aMD7oUM9jOCkIs-2" value="Customer" style="rounded=0;whiteSpace=wrap;html=1;movable=1;resizable=1;rotatable=1;deletable=1;editable=1;locked=0;connectable=1;" parent="1" vertex="1">
          <mxGeometry x="160" y="120" width="120" height="30" as="geometry" />
        </mxCell>
        <mxCell id="KiiTx_aMD7oUM9jOCkIs-4" value="firstName" style="text;html=1;strokeColor=none;fillColor=none;align=left;verticalAlign=middle;whiteSpace=wrap;rounded=0;movable=1;resizable=1;rotatable=1;deletable=1;editable=1;locked=0;connectable=1;" parent="1" vertex="1">
          <mxGeometry x="164" y="150" width="120" height="30" as="geometry" />
        </mxCell>
        <mxCell id="KiiTx_aMD7oUM9jOCkIs-6" value="" style="endArrow=none;html=1;rounded=0;" parent="1" edge="1">
          <mxGeometry width="50" height="50" relative="1" as="geometry">
            <mxPoint x="165" y="180" as="sourcePoint" />
            <mxPoint x="255" y="180" as="targetPoint" />
          </mxGeometry>
        </mxCell>
        <mxCell id="KiiTx_aMD7oUM9jOCkIs-7" value="lastName" style="text;html=1;strokeColor=none;fillColor=none;align=left;verticalAlign=middle;whiteSpace=wrap;rounded=0;movable=1;resizable=1;rotatable=1;deletable=1;editable=1;locked=0;connectable=1;" parent="1" vertex="1">
          <mxGeometry x="164" y="180" width="120" height="30" as="geometry" />
        </mxCell>
        <mxCell id="KiiTx_aMD7oUM9jOCkIs-8" value="" style="endArrow=none;html=1;rounded=0;" parent="1" edge="1">
          <mxGeometry width="50" height="50" relative="1" as="geometry">
            <mxPoint x="165" y="210" as="sourcePoint" />
            <mxPoint x="255" y="210" as="targetPoint" />
          </mxGeometry>
        </mxCell>
        <mxCell id="KiiTx_aMD7oUM9jOCkIs-9" value="address" style="text;html=1;strokeColor=none;fillColor=none;align=left;verticalAlign=middle;whiteSpace=wrap;rounded=0;movable=1;resizable=1;rotatable=1;deletable=1;editable=1;locked=0;connectable=1;" parent="1" vertex="1">
          <mxGeometry x="164" y="210" width="120" height="30" as="geometry" />
        </mxCell>
        <mxCell id="KiiTx_aMD7oUM9jOCkIs-10" value="" style="endArrow=none;html=1;rounded=0;" parent="1" edge="1">
          <mxGeometry width="50" height="50" relative="1" as="geometry">
            <mxPoint x="165" y="240" as="sourcePoint" />
            <mxPoint x="255" y="240" as="targetPoint" />
          </mxGeometry>
        </mxCell>
        <mxCell id="KiiTx_aMD7oUM9jOCkIs-11" value="phoneNumber" style="text;html=1;strokeColor=none;fillColor=none;align=left;verticalAlign=middle;whiteSpace=wrap;rounded=0;movable=1;resizable=1;rotatable=1;deletable=1;editable=1;locked=0;connectable=1;" parent="1" vertex="1">
          <mxGeometry x="164" y="240" width="120" height="30" as="geometry" />
        </mxCell>
        <mxCell id="KiiTx_aMD7oUM9jOCkIs-12" value="" style="endArrow=none;html=1;rounded=0;" parent="1" edge="1">
          <mxGeometry width="50" height="50" relative="1" as="geometry">
            <mxPoint x="165" y="270" as="sourcePoint" />
            <mxPoint x="255" y="270" as="targetPoint" />
          </mxGeometry>
        </mxCell>
        <mxCell id="KiiTx_aMD7oUM9jOCkIs-13" value="emailAddress" style="text;html=1;strokeColor=none;fillColor=none;align=left;verticalAlign=middle;whiteSpace=wrap;rounded=0;movable=1;resizable=1;rotatable=1;deletable=1;editable=1;locked=0;connectable=1;" parent="1" vertex="1">
          <mxGeometry x="164" y="270" width="120" height="30" as="geometry" />
        </mxCell>
        <mxCell id="KiiTx_aMD7oUM9jOCkIs-14" value="" style="endArrow=none;html=1;rounded=0;" parent="1" edge="1">
          <mxGeometry width="50" height="50" relative="1" as="geometry">
            <mxPoint x="165" y="300" as="sourcePoint" />
            <mxPoint x="255" y="300" as="targetPoint" />
          </mxGeometry>
        </mxCell>
        <mxCell id="KiiTx_aMD7oUM9jOCkIs-73" value="" style="rounded=0;whiteSpace=wrap;html=1;movable=1;resizable=1;rotatable=1;deletable=1;editable=1;locked=0;connectable=1;" parent="1" vertex="1">
          <mxGeometry x="450" y="120" width="120" height="220" as="geometry" />
        </mxCell>
        <mxCell id="EVNndC3BIwtmNu2A5LSY-37" style="edgeStyle=orthogonalEdgeStyle;shape=connector;rounded=0;orthogonalLoop=1;jettySize=auto;html=1;entryX=0.5;entryY=1;entryDx=0;entryDy=0;labelBackgroundColor=default;strokeColor=default;fontFamily=Helvetica;fontSize=11;fontColor=default;endArrow=none;endFill=0;" edge="1" parent="1" source="KiiTx_aMD7oUM9jOCkIs-74" target="EVNndC3BIwtmNu2A5LSY-29">
          <mxGeometry relative="1" as="geometry" />
        </mxCell>
        <mxCell id="KiiTx_aMD7oUM9jOCkIs-74" value="Order" style="rounded=0;whiteSpace=wrap;html=1;" parent="1" vertex="1">
          <mxGeometry x="450" y="120" width="120" height="30" as="geometry" />
        </mxCell>
        <mxCell id="KiiTx_aMD7oUM9jOCkIs-75" value="dateOfOrder" style="text;html=1;strokeColor=none;fillColor=none;align=left;verticalAlign=middle;whiteSpace=wrap;rounded=0;" parent="1" vertex="1">
          <mxGeometry x="454" y="150" width="120" height="30" as="geometry" />
        </mxCell>
        <mxCell id="KiiTx_aMD7oUM9jOCkIs-76" value="" style="endArrow=none;html=1;rounded=0;" parent="1" edge="1">
          <mxGeometry width="50" height="50" relative="1" as="geometry">
            <mxPoint x="455" y="180" as="sourcePoint" />
            <mxPoint x="545" y="180" as="targetPoint" />
          </mxGeometry>
        </mxCell>
        <mxCell id="KiiTx_aMD7oUM9jOCkIs-77" value="status" style="text;html=1;strokeColor=none;fillColor=none;align=left;verticalAlign=middle;whiteSpace=wrap;rounded=0;" parent="1" vertex="1">
          <mxGeometry x="454" y="180" width="120" height="30" as="geometry" />
        </mxCell>
        <mxCell id="KiiTx_aMD7oUM9jOCkIs-78" value="" style="endArrow=none;html=1;rounded=0;" parent="1" edge="1">
          <mxGeometry width="50" height="50" relative="1" as="geometry">
            <mxPoint x="455" y="210" as="sourcePoint" />
            <mxPoint x="545" y="210" as="targetPoint" />
          </mxGeometry>
        </mxCell>
        <mxCell id="KiiTx_aMD7oUM9jOCkIs-79" value="quantity" style="text;html=1;strokeColor=none;fillColor=none;align=left;verticalAlign=middle;whiteSpace=wrap;rounded=0;" parent="1" vertex="1">
          <mxGeometry x="454" y="210" width="120" height="30" as="geometry" />
        </mxCell>
        <mxCell id="KiiTx_aMD7oUM9jOCkIs-80" value="" style="endArrow=none;html=1;rounded=0;" parent="1" edge="1">
          <mxGeometry width="50" height="50" relative="1" as="geometry">
            <mxPoint x="455" y="240" as="sourcePoint" />
            <mxPoint x="545" y="240" as="targetPoint" />
          </mxGeometry>
        </mxCell>
        <mxCell id="KiiTx_aMD7oUM9jOCkIs-81" value="modelType" style="text;html=1;strokeColor=none;fillColor=none;align=left;verticalAlign=middle;whiteSpace=wrap;rounded=0;" parent="1" vertex="1">
          <mxGeometry x="454" y="240" width="120" height="30" as="geometry" />
        </mxCell>
        <mxCell id="KiiTx_aMD7oUM9jOCkIs-82" value="" style="endArrow=none;html=1;rounded=0;" parent="1" edge="1">
          <mxGeometry width="50" height="50" relative="1" as="geometry">
            <mxPoint x="455" y="270" as="sourcePoint" />
            <mxPoint x="545" y="270" as="targetPoint" />
          </mxGeometry>
        </mxCell>
        <mxCell id="KiiTx_aMD7oUM9jOCkIs-83" value="modelSize" style="text;html=1;strokeColor=none;fillColor=none;align=left;verticalAlign=middle;whiteSpace=wrap;rounded=0;" parent="1" vertex="1">
          <mxGeometry x="454" y="270" width="120" height="30" as="geometry" />
        </mxCell>
        <mxCell id="KiiTx_aMD7oUM9jOCkIs-84" value="" style="endArrow=none;html=1;rounded=0;" parent="1" edge="1">
          <mxGeometry width="50" height="50" relative="1" as="geometry">
            <mxPoint x="455" y="300" as="sourcePoint" />
            <mxPoint x="545" y="300" as="targetPoint" />
          </mxGeometry>
        </mxCell>
        <mxCell id="KiiTx_aMD7oUM9jOCkIs-85" value="pricing" style="text;html=1;strokeColor=none;fillColor=none;align=left;verticalAlign=middle;whiteSpace=wrap;rounded=0;" parent="1" vertex="1">
          <mxGeometry x="454" y="300" width="120" height="30" as="geometry" />
        </mxCell>
        <mxCell id="KiiTx_aMD7oUM9jOCkIs-86" value="" style="endArrow=none;html=1;rounded=0;" parent="1" edge="1">
          <mxGeometry width="50" height="50" relative="1" as="geometry">
            <mxPoint x="455" y="330" as="sourcePoint" />
            <mxPoint x="545" y="330" as="targetPoint" />
          </mxGeometry>
        </mxCell>
        <mxCell id="KiiTx_aMD7oUM9jOCkIs-91" value="" style="endArrow=none;html=1;rounded=0;entryX=0;entryY=0.5;entryDx=0;entryDy=0;" parent="1" target="KiiTx_aMD7oUM9jOCkIs-73" edge="1">
          <mxGeometry width="50" height="50" relative="1" as="geometry">
            <mxPoint x="280" y="230" as="sourcePoint" />
            <mxPoint x="400" y="210" as="targetPoint" />
          </mxGeometry>
        </mxCell>
        <mxCell id="KiiTx_aMD7oUM9jOCkIs-92" value="1" style="text;html=1;align=center;verticalAlign=middle;resizable=0;points=[];autosize=1;strokeColor=none;fillColor=none;" parent="1" vertex="1">
          <mxGeometry x="284" y="200" width="30" height="30" as="geometry" />
        </mxCell>
        <mxCell id="KiiTx_aMD7oUM9jOCkIs-93" value="0..*" style="text;html=1;align=center;verticalAlign=middle;resizable=0;points=[];autosize=1;strokeColor=none;fillColor=none;" parent="1" vertex="1">
          <mxGeometry x="400" y="200" width="40" height="30" as="geometry" />
        </mxCell>
        <mxCell id="KiiTx_aMD7oUM9jOCkIs-94" value="places" style="text;html=1;align=center;verticalAlign=middle;resizable=0;points=[];autosize=1;strokeColor=none;fillColor=none;" parent="1" vertex="1">
          <mxGeometry x="330" y="200" width="60" height="30" as="geometry" />
        </mxCell>
        <mxCell id="8R8J1MiFsdW_CflYRS5i-2" value="" style="rounded=0;whiteSpace=wrap;html=1;movable=1;resizable=1;rotatable=1;deletable=1;editable=1;locked=0;connectable=1;" parent="1" vertex="1">
          <mxGeometry x="670" y="120" width="120" height="220" as="geometry" />
        </mxCell>
        <mxCell id="8R8J1MiFsdW_CflYRS5i-3" value="Shipping Information" style="rounded=0;whiteSpace=wrap;html=1;" parent="1" vertex="1">
          <mxGeometry x="670" y="120" width="120" height="30" as="geometry" />
        </mxCell>
        <mxCell id="8R8J1MiFsdW_CflYRS5i-4" value="dimensionsPackage" style="text;html=1;strokeColor=none;fillColor=none;align=left;verticalAlign=middle;whiteSpace=wrap;rounded=0;" parent="1" vertex="1">
          <mxGeometry x="674" y="150" width="120" height="30" as="geometry" />
        </mxCell>
        <mxCell id="8R8J1MiFsdW_CflYRS5i-5" value="" style="endArrow=none;html=1;rounded=0;" parent="1" edge="1">
          <mxGeometry width="50" height="50" relative="1" as="geometry">
            <mxPoint x="675" y="180" as="sourcePoint" />
            <mxPoint x="765" y="180" as="targetPoint" />
          </mxGeometry>
        </mxCell>
        <mxCell id="8R8J1MiFsdW_CflYRS5i-6" value="weightPackage" style="text;html=1;strokeColor=none;fillColor=none;align=left;verticalAlign=middle;whiteSpace=wrap;rounded=0;" parent="1" vertex="1">
          <mxGeometry x="674" y="180" width="120" height="30" as="geometry" />
        </mxCell>
        <mxCell id="8R8J1MiFsdW_CflYRS5i-7" value="" style="endArrow=none;html=1;rounded=0;" parent="1" edge="1">
          <mxGeometry width="50" height="50" relative="1" as="geometry">
            <mxPoint x="675" y="210" as="sourcePoint" />
            <mxPoint x="765" y="210" as="targetPoint" />
          </mxGeometry>
        </mxCell>
        <mxCell id="8R8J1MiFsdW_CflYRS5i-8" value="address(foreignkey)" style="text;html=1;strokeColor=none;fillColor=none;align=left;verticalAlign=middle;whiteSpace=wrap;rounded=0;" parent="1" vertex="1">
          <mxGeometry x="674" y="210" width="120" height="30" as="geometry" />
        </mxCell>
        <mxCell id="8R8J1MiFsdW_CflYRS5i-9" value="" style="endArrow=none;html=1;rounded=0;" parent="1" edge="1">
          <mxGeometry width="50" height="50" relative="1" as="geometry">
            <mxPoint x="675" y="240" as="sourcePoint" />
            <mxPoint x="765" y="240" as="targetPoint" />
          </mxGeometry>
        </mxCell>
        <mxCell id="8R8J1MiFsdW_CflYRS5i-10" value="priceCalculation" style="text;html=1;strokeColor=none;fillColor=none;align=left;verticalAlign=middle;whiteSpace=wrap;rounded=0;" parent="1" vertex="1">
          <mxGeometry x="674" y="240" width="120" height="30" as="geometry" />
        </mxCell>
        <mxCell id="8R8J1MiFsdW_CflYRS5i-11" value="" style="endArrow=none;html=1;rounded=0;" parent="1" edge="1">
          <mxGeometry width="50" height="50" relative="1" as="geometry">
            <mxPoint x="675" y="270" as="sourcePoint" />
            <mxPoint x="765" y="270" as="targetPoint" />
          </mxGeometry>
        </mxCell>
        <mxCell id="8R8J1MiFsdW_CflYRS5i-12" value="taxCalculation" style="text;html=1;strokeColor=none;fillColor=none;align=left;verticalAlign=middle;whiteSpace=wrap;rounded=0;" parent="1" vertex="1">
          <mxGeometry x="674" y="270" width="120" height="30" as="geometry" />
        </mxCell>
        <mxCell id="8R8J1MiFsdW_CflYRS5i-13" value="" style="endArrow=none;html=1;rounded=0;" parent="1" edge="1">
          <mxGeometry width="50" height="50" relative="1" as="geometry">
            <mxPoint x="675" y="300" as="sourcePoint" />
            <mxPoint x="765" y="300" as="targetPoint" />
          </mxGeometry>
        </mxCell>
        <mxCell id="8R8J1MiFsdW_CflYRS5i-14" value="totalCalculation" style="text;html=1;strokeColor=none;fillColor=none;align=left;verticalAlign=middle;whiteSpace=wrap;rounded=0;" parent="1" vertex="1">
          <mxGeometry x="674" y="300" width="120" height="30" as="geometry" />
        </mxCell>
        <mxCell id="8R8J1MiFsdW_CflYRS5i-15" value="" style="endArrow=none;html=1;rounded=0;" parent="1" edge="1">
          <mxGeometry width="50" height="50" relative="1" as="geometry">
            <mxPoint x="675" y="330" as="sourcePoint" />
            <mxPoint x="765" y="330" as="targetPoint" />
          </mxGeometry>
        </mxCell>
        <mxCell id="8R8J1MiFsdW_CflYRS5i-17" value="" style="endArrow=none;html=1;rounded=0;exitX=0.951;exitY=0.931;exitDx=0;exitDy=0;exitPerimeter=0;entryX=-0.022;entryY=0.536;entryDx=0;entryDy=0;entryPerimeter=0;" parent="1" source="KiiTx_aMD7oUM9jOCkIs-79" target="8R8J1MiFsdW_CflYRS5i-2" edge="1">
          <mxGeometry width="50" height="50" relative="1" as="geometry">
            <mxPoint x="590" y="230" as="sourcePoint" />
            <mxPoint x="640" y="180" as="targetPoint" />
          </mxGeometry>
        </mxCell>
        <mxCell id="8R8J1MiFsdW_CflYRS5i-18" value="has" style="text;html=1;align=center;verticalAlign=middle;resizable=0;points=[];autosize=1;strokeColor=none;fillColor=none;" parent="1" vertex="1">
          <mxGeometry x="600" y="200" width="40" height="30" as="geometry" />
        </mxCell>
        <mxCell id="8R8J1MiFsdW_CflYRS5i-19" value="1" style="text;html=1;align=center;verticalAlign=middle;resizable=0;points=[];autosize=1;strokeColor=none;fillColor=none;" parent="1" vertex="1">
          <mxGeometry x="570" y="200" width="30" height="30" as="geometry" />
        </mxCell>
        <mxCell id="8R8J1MiFsdW_CflYRS5i-20" value="1" style="text;html=1;align=center;verticalAlign=middle;resizable=0;points=[];autosize=1;strokeColor=none;fillColor=none;" parent="1" vertex="1">
          <mxGeometry x="635" y="198" width="30" height="30" as="geometry" />
        </mxCell>
        <mxCell id="8R8J1MiFsdW_CflYRS5i-22" value="contains" style="text;html=1;align=center;verticalAlign=middle;resizable=0;points=[];autosize=1;strokeColor=none;fillColor=none;" parent="1" vertex="1">
          <mxGeometry x="440" y="350" width="70" height="30" as="geometry" />
        </mxCell>
        <mxCell id="8R8J1MiFsdW_CflYRS5i-23" value="1" style="text;html=1;align=center;verticalAlign=middle;resizable=0;points=[];autosize=1;strokeColor=none;fillColor=none;" parent="1" vertex="1">
          <mxGeometry x="230" y="310" width="30" height="30" as="geometry" />
        </mxCell>
        <mxCell id="8R8J1MiFsdW_CflYRS5i-24" value="1" style="text;html=1;align=center;verticalAlign=middle;resizable=0;points=[];autosize=1;strokeColor=none;fillColor=none;" parent="1" vertex="1">
          <mxGeometry x="684" y="340" width="30" height="30" as="geometry" />
        </mxCell>
        <mxCell id="EVNndC3BIwtmNu2A5LSY-29" value="" style="rounded=0;whiteSpace=wrap;html=1;movable=1;resizable=1;rotatable=1;deletable=1;editable=1;locked=0;connectable=1;" vertex="1" parent="1">
          <mxGeometry x="415" y="-69" width="190" height="130" as="geometry" />
        </mxCell>
        <mxCell id="EVNndC3BIwtmNu2A5LSY-30" value="Cybersource" style="rounded=0;whiteSpace=wrap;html=1;movable=1;resizable=1;rotatable=1;deletable=1;editable=1;locked=0;connectable=1;" vertex="1" parent="1">
          <mxGeometry x="415" y="-69" width="190" height="30" as="geometry" />
        </mxCell>
        <mxCell id="EVNndC3BIwtmNu2A5LSY-31" value="customerInformation(foreignkey)" style="text;html=1;strokeColor=none;fillColor=none;align=left;verticalAlign=middle;whiteSpace=wrap;rounded=0;movable=1;resizable=1;rotatable=1;deletable=1;editable=1;locked=0;connectable=1;" vertex="1" parent="1">
          <mxGeometry x="419" y="-39" width="120" height="30" as="geometry" />
        </mxCell>
        <mxCell id="EVNndC3BIwtmNu2A5LSY-32" value="" style="endArrow=none;html=1;rounded=0;" edge="1" parent="1">
          <mxGeometry width="50" height="50" relative="1" as="geometry">
            <mxPoint x="420" y="-9" as="sourcePoint" />
            <mxPoint x="510" y="-9" as="targetPoint" />
          </mxGeometry>
        </mxCell>
        <mxCell id="EVNndC3BIwtmNu2A5LSY-33" value="paymentDetails" style="text;html=1;strokeColor=none;fillColor=none;align=left;verticalAlign=middle;whiteSpace=wrap;rounded=0;movable=1;resizable=1;rotatable=1;deletable=1;editable=1;locked=0;connectable=1;" vertex="1" parent="1">
          <mxGeometry x="419" y="-9" width="120" height="30" as="geometry" />
        </mxCell>
        <mxCell id="EVNndC3BIwtmNu2A5LSY-34" value="" style="endArrow=none;html=1;rounded=0;" edge="1" parent="1">
          <mxGeometry width="50" height="50" relative="1" as="geometry">
            <mxPoint x="420" y="21" as="sourcePoint" />
            <mxPoint x="510" y="21" as="targetPoint" />
          </mxGeometry>
        </mxCell>
        <mxCell id="EVNndC3BIwtmNu2A5LSY-35" value="status" style="text;html=1;strokeColor=none;fillColor=none;align=left;verticalAlign=middle;whiteSpace=wrap;rounded=0;movable=1;resizable=1;rotatable=1;deletable=1;editable=1;locked=0;connectable=1;" vertex="1" parent="1">
          <mxGeometry x="419" y="21" width="120" height="30" as="geometry" />
        </mxCell>
        <mxCell id="EVNndC3BIwtmNu2A5LSY-36" value="" style="endArrow=none;html=1;rounded=0;" edge="1" parent="1">
          <mxGeometry width="50" height="50" relative="1" as="geometry">
            <mxPoint x="420" y="51" as="sourcePoint" />
            <mxPoint x="510" y="51" as="targetPoint" />
          </mxGeometry>
        </mxCell>
        <mxCell id="EVNndC3BIwtmNu2A5LSY-39" value="confirms" style="text;html=1;align=center;verticalAlign=middle;resizable=0;points=[];autosize=1;strokeColor=none;fillColor=none;fontSize=11;fontFamily=Helvetica;fontColor=default;" vertex="1" parent="1">
          <mxGeometry x="504" y="78" width="70" height="30" as="geometry" />
        </mxCell>
        <mxCell id="EVNndC3BIwtmNu2A5LSY-40" value="pays" style="text;html=1;align=center;verticalAlign=middle;resizable=0;points=[];autosize=1;strokeColor=none;fillColor=none;fontSize=11;fontFamily=Helvetica;fontColor=default;" vertex="1" parent="1">
          <mxGeometry x="310" y="-40" width="50" height="30" as="geometry" />
        </mxCell>
        <mxCell id="EVNndC3BIwtmNu2A5LSY-41" value="1" style="text;html=1;align=center;verticalAlign=middle;resizable=0;points=[];autosize=1;strokeColor=none;fillColor=none;fontSize=11;fontFamily=Helvetica;fontColor=default;" vertex="1" parent="1">
          <mxGeometry x="250" y="90" width="30" height="30" as="geometry" />
        </mxCell>
        <mxCell id="EVNndC3BIwtmNu2A5LSY-42" value="1" style="text;html=1;align=center;verticalAlign=middle;resizable=0;points=[];autosize=1;strokeColor=none;fillColor=none;fontSize=11;fontFamily=Helvetica;fontColor=default;" vertex="1" parent="1">
          <mxGeometry x="385" width="30" height="30" as="geometry" />
        </mxCell>
        <mxCell id="EVNndC3BIwtmNu2A5LSY-43" value="1" style="text;html=1;align=center;verticalAlign=middle;resizable=0;points=[];autosize=1;strokeColor=none;fillColor=none;fontSize=11;fontFamily=Helvetica;fontColor=default;" vertex="1" parent="1">
          <mxGeometry x="485" y="88" width="30" height="30" as="geometry" />
        </mxCell>
        <mxCell id="EVNndC3BIwtmNu2A5LSY-45" value="1" style="text;html=1;align=center;verticalAlign=middle;resizable=0;points=[];autosize=1;strokeColor=none;fillColor=none;fontSize=11;fontFamily=Helvetica;fontColor=default;" vertex="1" parent="1">
          <mxGeometry x="485" y="58" width="30" height="30" as="geometry" />
        </mxCell>
        <mxCell id="EVNndC3BIwtmNu2A5LSY-46" value="" style="rounded=0;whiteSpace=wrap;html=1;movable=1;resizable=1;rotatable=1;deletable=1;editable=1;locked=0;connectable=1;" vertex="1" parent="1">
          <mxGeometry x="-90" y="120" width="120" height="222" as="geometry" />
        </mxCell>
        <mxCell id="EVNndC3BIwtmNu2A5LSY-47" value="Grandpa&#39;s Cabinet&#39;s Shop" style="rounded=0;whiteSpace=wrap;html=1;movable=1;resizable=1;rotatable=1;deletable=1;editable=1;locked=0;connectable=1;" vertex="1" parent="1">
          <mxGeometry x="-90" y="120" width="120" height="30" as="geometry" />
        </mxCell>
        <mxCell id="EVNndC3BIwtmNu2A5LSY-48" value="modelType" style="text;html=1;strokeColor=none;fillColor=none;align=left;verticalAlign=middle;whiteSpace=wrap;rounded=0;movable=1;resizable=1;rotatable=1;deletable=1;editable=1;locked=0;connectable=1;" vertex="1" parent="1">
          <mxGeometry x="-86" y="150" width="120" height="30" as="geometry" />
        </mxCell>
        <mxCell id="EVNndC3BIwtmNu2A5LSY-49" value="" style="endArrow=none;html=1;rounded=0;" edge="1" parent="1">
          <mxGeometry width="50" height="50" relative="1" as="geometry">
            <mxPoint x="-85" y="180" as="sourcePoint" />
            <mxPoint x="5" y="180" as="targetPoint" />
          </mxGeometry>
        </mxCell>
        <mxCell id="EVNndC3BIwtmNu2A5LSY-50" value="modelDescription" style="text;html=1;strokeColor=none;fillColor=none;align=left;verticalAlign=middle;whiteSpace=wrap;rounded=0;movable=1;resizable=1;rotatable=1;deletable=1;editable=1;locked=0;connectable=1;" vertex="1" parent="1">
          <mxGeometry x="-86" y="180" width="120" height="30" as="geometry" />
        </mxCell>
        <mxCell id="EVNndC3BIwtmNu2A5LSY-51" value="" style="endArrow=none;html=1;rounded=0;" edge="1" parent="1">
          <mxGeometry width="50" height="50" relative="1" as="geometry">
            <mxPoint x="-85" y="210" as="sourcePoint" />
            <mxPoint x="5" y="210" as="targetPoint" />
          </mxGeometry>
        </mxCell>
        <mxCell id="EVNndC3BIwtmNu2A5LSY-52" value="address" style="text;html=1;strokeColor=none;fillColor=none;align=left;verticalAlign=middle;whiteSpace=wrap;rounded=0;movable=1;resizable=1;rotatable=1;deletable=1;editable=1;locked=0;connectable=1;" vertex="1" parent="1">
          <mxGeometry x="-82" y="210" width="112" height="30" as="geometry" />
        </mxCell>
        <mxCell id="EVNndC3BIwtmNu2A5LSY-53" value="" style="endArrow=none;html=1;rounded=0;" edge="1" parent="1">
          <mxGeometry width="50" height="50" relative="1" as="geometry">
            <mxPoint x="-85" y="240" as="sourcePoint" />
            <mxPoint x="5" y="240" as="targetPoint" />
          </mxGeometry>
        </mxCell>
        <mxCell id="EVNndC3BIwtmNu2A5LSY-54" value="phoneNumber" style="text;html=1;strokeColor=none;fillColor=none;align=left;verticalAlign=middle;whiteSpace=wrap;rounded=0;movable=1;resizable=1;rotatable=1;deletable=1;editable=1;locked=0;connectable=1;" vertex="1" parent="1">
          <mxGeometry x="-86" y="240" width="120" height="30" as="geometry" />
        </mxCell>
        <mxCell id="EVNndC3BIwtmNu2A5LSY-55" value="" style="endArrow=none;html=1;rounded=0;" edge="1" parent="1">
          <mxGeometry width="50" height="50" relative="1" as="geometry">
            <mxPoint x="-85" y="270" as="sourcePoint" />
            <mxPoint x="5" y="270" as="targetPoint" />
          </mxGeometry>
        </mxCell>
        <mxCell id="EVNndC3BIwtmNu2A5LSY-58" value="" style="group" vertex="1" connectable="0" parent="1">
          <mxGeometry x="-86" y="270" width="120" height="30" as="geometry" />
        </mxCell>
        <mxCell id="EVNndC3BIwtmNu2A5LSY-56" value="emailAddress" style="text;html=1;strokeColor=none;fillColor=none;align=left;verticalAlign=middle;whiteSpace=wrap;rounded=0;movable=1;resizable=1;rotatable=1;deletable=1;editable=1;locked=0;connectable=1;" vertex="1" parent="EVNndC3BIwtmNu2A5LSY-58">
          <mxGeometry width="120" height="30" as="geometry" />
        </mxCell>
        <mxCell id="EVNndC3BIwtmNu2A5LSY-57" value="" style="endArrow=none;html=1;rounded=0;" edge="1" parent="EVNndC3BIwtmNu2A5LSY-58">
          <mxGeometry width="50" height="50" relative="1" as="geometry">
            <mxPoint x="1" y="30" as="sourcePoint" />
            <mxPoint x="91" y="30" as="targetPoint" />
          </mxGeometry>
        </mxCell>
        <mxCell id="EVNndC3BIwtmNu2A5LSY-59" value="" style="group" vertex="1" connectable="0" parent="1">
          <mxGeometry x="-86" y="302" width="120" height="30" as="geometry" />
        </mxCell>
        <mxCell id="EVNndC3BIwtmNu2A5LSY-60" value="pricing" style="text;html=1;strokeColor=none;fillColor=none;align=left;verticalAlign=middle;whiteSpace=wrap;rounded=0;movable=1;resizable=1;rotatable=1;deletable=1;editable=1;locked=0;connectable=1;" vertex="1" parent="EVNndC3BIwtmNu2A5LSY-59">
          <mxGeometry width="120" height="30" as="geometry" />
        </mxCell>
        <mxCell id="EVNndC3BIwtmNu2A5LSY-61" value="" style="endArrow=none;html=1;rounded=0;" edge="1" parent="EVNndC3BIwtmNu2A5LSY-59">
          <mxGeometry width="50" height="50" relative="1" as="geometry">
            <mxPoint x="1" y="30" as="sourcePoint" />
            <mxPoint x="91" y="30" as="targetPoint" />
          </mxGeometry>
        </mxCell>
        <mxCell id="EVNndC3BIwtmNu2A5LSY-66" value="accesses" style="text;html=1;align=center;verticalAlign=middle;resizable=0;points=[];autosize=1;strokeColor=none;fillColor=none;fontSize=11;fontFamily=Helvetica;fontColor=default;" vertex="1" parent="1">
          <mxGeometry x="55" y="178" width="70" height="30" as="geometry" />
        </mxCell>
        <mxCell id="EVNndC3BIwtmNu2A5LSY-67" value="1..*" style="text;html=1;align=center;verticalAlign=middle;resizable=0;points=[];autosize=1;strokeColor=none;fillColor=none;fontSize=11;fontFamily=Helvetica;fontColor=default;" vertex="1" parent="1">
          <mxGeometry x="30" y="178" width="40" height="30" as="geometry" />
        </mxCell>
        <mxCell id="EVNndC3BIwtmNu2A5LSY-68" value="0..*" style="text;html=1;align=center;verticalAlign=middle;resizable=0;points=[];autosize=1;strokeColor=none;fillColor=none;fontSize=11;fontFamily=Helvetica;fontColor=default;" vertex="1" parent="1">
          <mxGeometry x="120" y="178" width="40" height="30" as="geometry" />
        </mxCell>
        <mxCell id="EVNndC3BIwtmNu2A5LSY-69" value="" style="rounded=0;whiteSpace=wrap;html=1;movable=1;resizable=1;rotatable=1;deletable=1;editable=1;locked=0;connectable=1;" vertex="1" parent="1">
          <mxGeometry x="-40" y="-54" width="190" height="100" as="geometry" />
        </mxCell>
        <mxCell id="EVNndC3BIwtmNu2A5LSY-70" value="Salesforce Profile" style="rounded=0;whiteSpace=wrap;html=1;movable=1;resizable=1;rotatable=1;deletable=1;editable=1;locked=0;connectable=1;" vertex="1" parent="1">
          <mxGeometry x="-40" y="-54" width="190" height="30" as="geometry" />
        </mxCell>
        <mxCell id="EVNndC3BIwtmNu2A5LSY-71" value="customerInformation(foreignkey)" style="text;html=1;strokeColor=none;fillColor=none;align=left;verticalAlign=middle;whiteSpace=wrap;rounded=0;movable=1;resizable=1;rotatable=1;deletable=1;editable=1;locked=0;connectable=1;" vertex="1" parent="1">
          <mxGeometry x="-36" y="-24" width="120" height="30" as="geometry" />
        </mxCell>
        <mxCell id="EVNndC3BIwtmNu2A5LSY-72" value="" style="endArrow=none;html=1;rounded=0;" edge="1" parent="1">
          <mxGeometry width="50" height="50" relative="1" as="geometry">
            <mxPoint x="-35" y="6" as="sourcePoint" />
            <mxPoint x="55" y="6" as="targetPoint" />
          </mxGeometry>
        </mxCell>
        <mxCell id="EVNndC3BIwtmNu2A5LSY-73" value="analytics" style="text;html=1;strokeColor=none;fillColor=none;align=left;verticalAlign=middle;whiteSpace=wrap;rounded=0;movable=1;resizable=1;rotatable=1;deletable=1;editable=1;locked=0;connectable=1;" vertex="1" parent="1">
          <mxGeometry x="-36" y="6" width="120" height="30" as="geometry" />
        </mxCell>
        <mxCell id="EVNndC3BIwtmNu2A5LSY-74" value="" style="endArrow=none;html=1;rounded=0;" edge="1" parent="1">
          <mxGeometry width="50" height="50" relative="1" as="geometry">
            <mxPoint x="-35" y="36" as="sourcePoint" />
            <mxPoint x="55" y="36" as="targetPoint" />
          </mxGeometry>
        </mxCell>
        <mxCell id="EVNndC3BIwtmNu2A5LSY-86" value="1" style="text;html=1;align=center;verticalAlign=middle;resizable=0;points=[];autosize=1;strokeColor=none;fillColor=none;fontSize=11;fontFamily=Helvetica;fontColor=default;" vertex="1" parent="1">
          <mxGeometry x="150" y="-39" width="30" height="30" as="geometry" />
        </mxCell>
        <mxCell id="EVNndC3BIwtmNu2A5LSY-87" value="1" style="text;html=1;align=center;verticalAlign=middle;resizable=0;points=[];autosize=1;strokeColor=none;fillColor=none;fontSize=11;fontFamily=Helvetica;fontColor=default;" vertex="1" parent="1">
          <mxGeometry x="185" y="88" width="30" height="30" as="geometry" />
        </mxCell>
        <mxCell id="EVNndC3BIwtmNu2A5LSY-88" value="automatically creates and updates" style="text;html=1;align=center;verticalAlign=middle;resizable=0;points=[];autosize=1;strokeColor=none;fillColor=none;fontSize=11;fontFamily=Helvetica;fontColor=default;" vertex="1" parent="1">
          <mxGeometry y="51" width="190" height="30" as="geometry" />
        </mxCell>
      </root>
    </mxGraphModel>
  </diagram>
</mxfile>
